<?xml version="1.0" encoding="UTF-8" standalone="no"?>
<!-- Created with Inkscape (http://www.inkscape.org/) -->

<svg
   xmlns:dc="http://purl.org/dc/elements/1.1/"
   xmlns:cc="http://creativecommons.org/ns#"
   xmlns:rdf="http://www.w3.org/1999/02/22-rdf-syntax-ns#"
   xmlns:svg="http://www.w3.org/2000/svg"
   xmlns="http://www.w3.org/2000/svg"
   xmlns:sodipodi="http://sodipodi.sourceforge.net/DTD/sodipodi-0.dtd"
   xmlns:inkscape="http://www.inkscape.org/namespaces/inkscape"
   width="81.265999mm"
   height="61.671001mm"
   viewBox="0 0 81.266 61.671003"
   version="1.1"
   id="svg8"
   inkscape:version="0.92.2 5c3e80d, 2017-08-06"
   sodipodi:docname="logo.svg"
   inkscape:export-filename="/Users/dinorahperez/Documents/GitHub/201910-proyecto-en-clase-price-comparison/src/Images/logo.png"
   inkscape:export-xdpi="56.0168"
   inkscape:export-ydpi="56.0168">
  <defs
     id="defs2">
    <clipPath
       id="clipPath1598"
       clipPathUnits="userSpaceOnUse">
      <path
         inkscape:connector-curvature="0"
         id="path1596"
         d="M 0,800 H 800 V 0 H 0 Z" />
    </clipPath>
    <clipPath
       id="clipPath1606"
       clipPathUnits="userSpaceOnUse">
      <path
         inkscape:connector-curvature="0"
         id="path1604"
         d="M 41.6701,557.689 H 316.259 V 536.606 H 41.6701 Z" />
    </clipPath>
    <radialGradient
       id="radialGradient1620"
       spreadMethod="pad"
       gradientTransform="matrix(137.29216,0,0,-10.541761,178.96439,547.14734)"
       gradientUnits="userSpaceOnUse"
       r="1"
       cy="0"
       cx="0"
       fy="0"
       fx="0">
      <stop
         id="stop1612"
         offset="0"
         style="stop-opacity:1;stop-color:#2c2c25" />
      <stop
         id="stop1614"
         offset="0.13687007"
         style="stop-opacity:1;stop-color:#2c2c25" />
      <stop
         id="stop1616"
         offset="0.483517"
         style="stop-opacity:1;stop-color:#212218" />
      <stop
         id="stop1618"
         offset="1"
         style="stop-opacity:1;stop-color:#ffffff" />
    </radialGradient>
    <clipPath
       id="clipPath1642"
       clipPathUnits="userSpaceOnUse">
      <path
         inkscape:connector-curvature="0"
         id="path1640"
         d="M 303.36,567.912 H 577.948 V 546.829 H 303.36 Z" />
    </clipPath>
    <radialGradient
       id="radialGradient1656"
       spreadMethod="pad"
       gradientTransform="matrix(137.29216,0,0,-10.541761,440.65387,557.37079)"
       gradientUnits="userSpaceOnUse"
       r="1"
       cy="0"
       cx="0"
       fy="0"
       fx="0">
      <stop
         id="stop1648"
         offset="0"
         style="stop-opacity:1;stop-color:#2c2c25" />
      <stop
         id="stop1650"
         offset="0.13687007"
         style="stop-opacity:1;stop-color:#2c2c25" />
      <stop
         id="stop1652"
         offset="0.483517"
         style="stop-opacity:1;stop-color:#212218" />
      <stop
         id="stop1654"
         offset="1"
         style="stop-opacity:1;stop-color:#ffffff" />
    </radialGradient>
    <clipPath
       id="clipPath1678"
       clipPathUnits="userSpaceOnUse">
      <path
         inkscape:connector-curvature="0"
         id="path1676"
         d="M 566.432,477.395 H 770.363 V 456.312 H 566.432 Z" />
    </clipPath>
    <radialGradient
       id="radialGradient1692"
       spreadMethod="pad"
       gradientTransform="matrix(101.96379,0,0,-10.541761,668.39758,466.85312)"
       gradientUnits="userSpaceOnUse"
       r="1"
       cy="0"
       cx="0"
       fy="0"
       fx="0">
      <stop
         id="stop1684"
         offset="0"
         style="stop-opacity:1;stop-color:#2c2c25" />
      <stop
         id="stop1686"
         offset="0.13687007"
         style="stop-opacity:1;stop-color:#2c2c25" />
      <stop
         id="stop1688"
         offset="0.483517"
         style="stop-opacity:1;stop-color:#212218" />
      <stop
         id="stop1690"
         offset="1"
         style="stop-opacity:1;stop-color:#ffffff" />
    </radialGradient>
    <clipPath
       id="clipPath1714"
       clipPathUnits="userSpaceOnUse">
      <path
         inkscape:connector-curvature="0"
         id="path1712"
         d="M 529.249,109.278 H 772.268 V 88.1953 H 529.249 Z" />
    </clipPath>
    <radialGradient
       id="radialGradient1728"
       spreadMethod="pad"
       gradientTransform="matrix(121.50751,0,0,-10.541761,650.75861,98.73687)"
       gradientUnits="userSpaceOnUse"
       r="1"
       cy="0"
       cx="0"
       fy="0"
       fx="0">
      <stop
         id="stop1720"
         offset="0"
         style="stop-opacity:1;stop-color:#2c2c25" />
      <stop
         id="stop1722"
         offset="0.13687007"
         style="stop-opacity:1;stop-color:#2c2c25" />
      <stop
         id="stop1724"
         offset="0.483517"
         style="stop-opacity:1;stop-color:#212218" />
      <stop
         id="stop1726"
         offset="1"
         style="stop-opacity:1;stop-color:#ffffff" />
    </radialGradient>
    <clipPath
       id="clipPath1750"
       clipPathUnits="userSpaceOnUse">
      <path
         inkscape:connector-curvature="0"
         id="path1748"
         d="M 296.102,114.404 H 539.121 V 93.3205 H 296.102 Z" />
    </clipPath>
    <radialGradient
       id="radialGradient1764"
       spreadMethod="pad"
       gradientTransform="matrix(121.50751,0,0,-10.541761,417.61121,103.86206)"
       gradientUnits="userSpaceOnUse"
       r="1"
       cy="0"
       cx="0"
       fy="0"
       fx="0">
      <stop
         id="stop1756"
         offset="0"
         style="stop-opacity:1;stop-color:#2c2c25" />
      <stop
         id="stop1758"
         offset="0.13687007"
         style="stop-opacity:1;stop-color:#2c2c25" />
      <stop
         id="stop1760"
         offset="0.483517"
         style="stop-opacity:1;stop-color:#212218" />
      <stop
         id="stop1762"
         offset="1"
         style="stop-opacity:1;stop-color:#ffffff" />
    </radialGradient>
    <clipPath
       id="clipPath1786"
       clipPathUnits="userSpaceOnUse">
      <path
         inkscape:connector-curvature="0"
         id="path1784"
         d="M 313.077,347.019 H 556.096 V 325.935 H 313.077 Z" />
    </clipPath>
    <radialGradient
       id="radialGradient1800"
       spreadMethod="pad"
       gradientTransform="matrix(121.50751,0,0,-10.541761,434.58658,336.47699)"
       gradientUnits="userSpaceOnUse"
       r="1"
       cy="0"
       cx="0"
       fy="0"
       fx="0">
      <stop
         id="stop1792"
         offset="0"
         style="stop-opacity:1;stop-color:#2c2c25" />
      <stop
         id="stop1794"
         offset="0.13687007"
         style="stop-opacity:1;stop-color:#2c2c25" />
      <stop
         id="stop1796"
         offset="0.483517"
         style="stop-opacity:1;stop-color:#212218" />
      <stop
         id="stop1798"
         offset="1"
         style="stop-opacity:1;stop-color:#ffffff" />
    </radialGradient>
    <clipPath
       id="clipPath1822"
       clipPathUnits="userSpaceOnUse">
      <path
         inkscape:connector-curvature="0"
         id="path1820"
         d="M 87.1615,293.827 H 276.711 V 277.49 H 87.1615 Z" />
    </clipPath>
    <radialGradient
       id="radialGradient1836"
       spreadMethod="pad"
       gradientTransform="matrix(94.773216,0,0,-8.1687889,181.9362,285.65881)"
       gradientUnits="userSpaceOnUse"
       r="1"
       cy="0"
       cx="0"
       fy="0"
       fx="0">
      <stop
         id="stop1828"
         offset="0"
         style="stop-opacity:1;stop-color:#2c2c25" />
      <stop
         id="stop1830"
         offset="0.13687007"
         style="stop-opacity:1;stop-color:#2c2c25" />
      <stop
         id="stop1832"
         offset="0.483517"
         style="stop-opacity:1;stop-color:#212218" />
      <stop
         id="stop1834"
         offset="1"
         style="stop-opacity:1;stop-color:#ffffff" />
    </radialGradient>
    <clipPath
       id="clipPath1858"
       clipPathUnits="userSpaceOnUse">
      <path
         inkscape:connector-curvature="0"
         id="path1856"
         d="M 67.8974,125.71 H 287.776 V 75.2461 H 67.8974 Z" />
    </clipPath>
    <radialGradient
       id="radialGradient1872"
       spreadMethod="pad"
       gradientTransform="matrix(109.93761,0,0,-25.232149,177.83675,100.47785)"
       gradientUnits="userSpaceOnUse"
       r="1"
       cy="0"
       cx="0"
       fy="0"
       fx="0">
      <stop
         id="stop1864"
         offset="0"
         style="stop-opacity:1;stop-color:#2c2c25" />
      <stop
         id="stop1866"
         offset="0.13687007"
         style="stop-opacity:1;stop-color:#2c2c25" />
      <stop
         id="stop1868"
         offset="0.483517"
         style="stop-opacity:1;stop-color:#212218" />
      <stop
         id="stop1870"
         offset="1"
         style="stop-opacity:1;stop-color:#ffffff" />
    </radialGradient>
    <clipPath
       id="clipPath1894"
       clipPathUnits="userSpaceOnUse">
      <path
         inkscape:connector-curvature="0"
         id="path1892"
         d="M 0,800 H 800 V 0 H 0 Z" />
    </clipPath>
    <clipPath
       id="clipPath1934"
       clipPathUnits="userSpaceOnUse">
      <path
         inkscape:connector-curvature="0"
         id="path1932"
         d="m 175.355,731.513 c -25.773,1.09 -44.468,-46.194 -37.007,-97.036 v 0 c 1.559,-2.143 5.337,-2.305 8.08,0.09 v 0 c -6.463,47.748 9.182,92.734 29.917,89.979 v 0 c 18.699,0.434 30.262,-44.555 25.841,-89.398 v 0 c 2.869,-3.19 7.212,-3.19 8.664,-0.347 v 0 c 4.389,51.236 -11.433,96.77 -34.058,96.773 v 0 c -0.477,0 -0.954,-0.02 -1.437,-0.061" />
    </clipPath>
    <clipPath
       id="clipPath1946"
       clipPathUnits="userSpaceOnUse">
      <path
         inkscape:connector-curvature="0"
         id="path1944"
         d="M 0,800 H 800 V 0 H 0 Z" />
    </clipPath>
    <clipPath
       id="clipPath1958"
       clipPathUnits="userSpaceOnUse">
      <path
         inkscape:connector-curvature="0"
         id="path1956"
         d="M 80.7232,615.252 H 276.646 V 541.66 H 80.7232 Z" />
    </clipPath>
    <clipPath
       id="clipPath2010"
       clipPathUnits="userSpaceOnUse">
      <path
         inkscape:connector-curvature="0"
         id="path2008"
         d="M 338.391,654.649 H 552.076 V 555.263 H 338.391 Z" />
    </clipPath>
    <clipPath
       id="clipPath2034"
       clipPathUnits="userSpaceOnUse">
      <path
         inkscape:connector-curvature="0"
         id="path2032"
         d="M 611.31,588.225 C 595.912,538.081 581.763,481.904 582.18,475.871 v 0 c 52.64,-14.98 140.573,-13.672 177.398,-0.353 v 0 c -2.724,11.908 -10.653,50.581 -25.485,112.872 v 0 C 694.979,580.9 633.78,579.067 611.31,588.225" />
    </clipPath>
    <clipPath
       id="clipPath2050"
       clipPathUnits="userSpaceOnUse">
      <path
         inkscape:connector-curvature="0"
         id="path2048"
         d="M 0,800 H 800 V 0 H 0 Z" />
    </clipPath>
    <clipPath
       id="clipPath2078"
       clipPathUnits="userSpaceOnUse">
      <path
         inkscape:connector-curvature="0"
         id="path2076"
         d="M 582.161,541.448 H 759.568 V 465.079 H 582.161 Z" />
    </clipPath>
    <clipPath
       id="clipPath2170"
       clipPathUnits="userSpaceOnUse">
      <path
         inkscape:connector-curvature="0"
         id="path2168"
         d="M 123.124,502.081 H 249.599 V 282.157 H 123.124 Z" />
    </clipPath>
    <clipPath
       id="clipPath2190"
       clipPathUnits="userSpaceOnUse">
      <path
         inkscape:connector-curvature="0"
         id="path2188"
         d="m 394.402,482.903 c -2.03,-9.591 -4.481,-18.063 -3.571,-19.954 v 0 c 0.91,-1.89 10.476,-1.401 10.642,-0.7 v 0 c 2.955,12.551 -1.318,55.65 33.114,55.65 v 0 c 36.39,0 30.159,-43.099 33.113,-55.65 v 0 c 0.165,-0.701 9.732,-1.19 10.642,0.7 v 0 c 0.91,1.891 -1.541,10.363 -3.57,19.954 v 0 c -5.282,24.95 -19.189,41.044 -40.185,41.044 v 0 c -20.997,0 -34.903,-16.094 -40.185,-41.044" />
    </clipPath>
    <clipPath
       id="clipPath2202"
       clipPathUnits="userSpaceOnUse">
      <path
         inkscape:connector-curvature="0"
         id="path2200"
         d="M 0,800 H 800 V 0 H 0 Z" />
    </clipPath>
    <clipPath
       id="clipPath2214"
       clipPathUnits="userSpaceOnUse">
      <path
         inkscape:connector-curvature="0"
         id="path2212"
         d="m 356.375,464.893 c 0,0 -12.321,-123.357 -12.041,-125.597 v 0 c 0.28,-2.241 1.119,-4.901 3.78,-6.021 v 0 c 1.309,-0.552 168.675,-0.552 169.984,0 v 0 c 2.661,1.12 3.501,3.78 3.78,6.021 v 0 c 0.28,2.24 -12.042,125.597 -12.042,125.597 v 0 z" />
    </clipPath>
    <clipPath
       id="clipPath2226"
       clipPathUnits="userSpaceOnUse">
      <path
         inkscape:connector-curvature="0"
         id="path2224"
         d="M 0,800 H 800 V 0 H 0 Z" />
    </clipPath>
    <clipPath
       id="clipPath2246"
       clipPathUnits="userSpaceOnUse">
      <path
         inkscape:connector-curvature="0"
         id="path2244"
         d="M 344.329,396.874 H 521.883 V 332.861 H 344.329 Z" />
    </clipPath>
    <linearGradient
       id="linearGradient2280"
       spreadMethod="pad"
       gradientTransform="matrix(-4.2113838,18.230631,-18.230631,-4.2113838,122.40156,206.63251)"
       gradientUnits="userSpaceOnUse"
       y2="0"
       x2="1"
       y1="0"
       x1="0">
      <stop
         id="stop2276"
         offset="0"
         style="stop-opacity:1;stop-color:#ef4136" />
      <stop
         id="stop2278"
         offset="1"
         style="stop-opacity:1;stop-color:#a11824" />
    </linearGradient>
    <clipPath
       id="clipPath2290"
       clipPathUnits="userSpaceOnUse">
      <path
         inkscape:connector-curvature="0"
         id="path2288"
         d="M 0,800 H 800 V 0 H 0 Z" />
    </clipPath>
    <clipPath
       id="clipPath2322"
       clipPathUnits="userSpaceOnUse">
      <path
         inkscape:connector-curvature="0"
         id="path2320"
         d="M 97.5021,226.854 H 249.116 V 82.8821 H 97.5021 Z" />
    </clipPath>
    <clipPath
       id="clipPath2342"
       clipPathUnits="userSpaceOnUse">
      <path
         inkscape:connector-curvature="0"
         id="path2340"
         d="m 416.99,213.333 c -44.703,-0.101 -86.654,-0.227 -88.962,-0.339 v 0 c -5.024,-0.244 -3.769,-7.088 -3.769,-7.088 v 0 c 0,0 15.484,-91.709 16.426,-96.965 v 0 c 0.942,-5.255 2.744,-6.069 4.24,-6.598 v 0 c 1.378,-0.488 33.499,-1.149 72.065,-1.694 v 0 h 10e-4 c 38.566,0.545 70.687,1.206 72.065,1.694 v 0 c 1.496,0.529 3.297,1.343 4.239,6.598 v 0 c 0.943,5.256 16.426,96.965 16.426,96.965 v 0 c 0,0 1.257,6.844 -3.769,7.088 v 0 c -2.307,0.112 -44.258,0.238 -88.961,0.339 v 0 z" />
    </clipPath>
    <clipPath
       id="clipPath2358"
       clipPathUnits="userSpaceOnUse">
      <path
         inkscape:connector-curvature="0"
         id="path2356"
         d="M 0,800 H 800 V 0 H 0 Z" />
    </clipPath>
    <clipPath
       id="clipPath2378"
       clipPathUnits="userSpaceOnUse">
      <path
         inkscape:connector-curvature="0"
         id="path2376"
         d="m 338.458,176.488 h 166.31 v -75.86 h -166.31 z" />
    </clipPath>
    <clipPath
       id="clipPath2450"
       clipPathUnits="userSpaceOnUse">
      <path
         inkscape:connector-curvature="0"
         id="path2448"
         d="M 562.745,244.37 H 727.937 V 98.7369 H 562.745 Z" />
    </clipPath>
    <clipPath
       id="clipPath2466"
       clipPathUnits="userSpaceOnUse">
      <path
         inkscape:connector-curvature="0"
         id="path2464"
         d="M 0,800 H 800 V 0 H 0 Z" />
    </clipPath>
  </defs>
  <sodipodi:namedview
     id="base"
     pagecolor="#ffffff"
     bordercolor="#666666"
     borderopacity="1.0"
     inkscape:pageopacity="0.0"
     inkscape:pageshadow="2"
     inkscape:zoom="1.3781732"
     inkscape:cx="221.53755"
     inkscape:cy="106.85841"
     inkscape:document-units="mm"
     inkscape:current-layer="layer1"
     showgrid="false"
     inkscape:window-width="1440"
     inkscape:window-height="855"
     inkscape:window-x="0"
     inkscape:window-y="1"
     inkscape:window-maximized="1"
     units="mm" />
  <metadata
     id="metadata5">
    <rdf:RDF>
      <cc:Work
         rdf:about="">
        <dc:format>image/svg+xml</dc:format>
        <dc:type
           rdf:resource="http://purl.org/dc/dcmitype/StillImage" />
        <dc:title></dc:title>
      </cc:Work>
    </rdf:RDF>
  </metadata>
  <g
     inkscape:label="Layer 1"
     inkscape:groupmode="layer"
     id="layer1"
     transform="translate(0,-235.32898)">
    <path
       inkscape:connector-curvature="0"
       id="path3732"
       d="m 31.865546,296.56583 c -1.661058,-0.73827 -2.819794,-2.81732 -2.554862,-4.58403 0.539982,-3.60084 4.489762,-5.09133 7.276975,-2.74605 1.603388,1.34917 1.96763,3.67259 0.869505,5.54642 -1.071566,1.82847 -3.644308,2.64915 -5.591618,1.78366 z m 14.737242,-0.15442 c -1.875799,-1.0624 -2.758083,-3.95181 -1.796158,-5.81197 0.550362,-1.06428 2.04447,-2.26416 3.055565,-2.45384 4.16599,-0.78155 7.117084,4.11972 4.378391,7.23893 -1.476907,1.68209 -3.749928,2.09611 -5.637798,1.02688 z M 1.2863463,284.3874 c -1.45106711,-0.82707 -1.72831847,-2.81982 -0.55549272,-3.99264 l 0.74246362,-0.74247 h 3.9760995 3.9760895 l 0.7424638,0.74247 c 0.974035,0.97402 1.028975,2.45181 0.13006,3.4979 l -0.6124125,0.71266 -3.8961091,0.064 c -2.9185743,0.048 -4.0484199,-0.0228 -4.5031621,-0.28196 z m 13.9702387,-0.30539 c -0.972465,-0.81828 -1.240496,-2.0432 -0.682974,-3.12132 0.223362,-0.43193 0.604953,-0.88912 0.847975,-1.01596 0.246471,-0.12863 9.989379,-0.30981 22.031988,-0.4097 15.898427,-0.13188 21.669016,-0.25721 21.889447,-0.47542 0.429752,-0.42542 14.559731,-30.5134 14.559731,-31.00309 0,-0.37098 -1.500167,-0.4084 -16.37113,-0.4084 -12.15166,0 -16.542791,-0.0782 -17.037134,-0.30346 -1.491567,-0.6796 -1.822869,-2.75993 -0.648813,-4.07406 l 0.741094,-0.82951 19.261504,-0.0716 c 10.593822,-0.0394 19.522226,-0.008 19.840887,0.0703 0.731574,0.17915 1.577998,1.54327 1.576838,2.54126 -10e-4,0.9729 -17.813777,38.68769 -18.564511,39.30672 -0.504652,0.41611 -2.01218,0.4445 -23.605565,0.4445 H 16.029439 Z m 7.591917,-12.80814 C 10.26044,271.17507 6.0772798,271.06644 5.6602577,270.82769 4.9840144,270.44053 4.479772,269.01295 4.703873,268.12006 c 0.091301,-0.36373 0.5051825,-0.94675 0.9197546,-1.29559 l 0.7537636,-0.63425 H 31.235863 56.094335 l 0.664873,0.5719 c 0.877984,0.75522 1.136666,2.43894 0.519433,3.38097 -0.855065,1.305 -1.469698,1.38641 -9.974369,1.32128 -4.300281,-0.0329 -15.305375,-0.11866 -24.45577,-0.1905 z M 15.438376,258.3376 c -1.591158,-0.12117 -2.06929,-0.26152 -2.603513,-0.7642 -0.894284,-0.84149 -0.913805,-2.48328 -0.0416,-3.49759 0.573862,-0.66733 0.759003,-0.71828 2.910564,-0.80104 1.318926,-0.0507 2.400302,-0.21304 2.538532,-0.38101 0.291472,-0.3542 -3.330676,-12.0797 -3.829298,-12.39604 -0.180191,-0.11432 -2.522533,-0.20961 -5.2051959,-0.21175 -3.0257648,-0.003 -5.112605,-0.11098 -5.4966269,-0.28596 -1.3960569,-0.63608 -1.7106484,-2.86161 -0.5662728,-4.006 l 0.6649633,-0.66496 h 7.0012543 7.001254 l 0.557843,0.64853 c 0.353432,0.41089 1.475877,3.57545 3.063135,8.63605 1.377907,4.39313 2.616883,8.13038 2.753284,8.30501 0.19144,0.24511 2.745963,0.3188 11.202444,0.32316 9.995609,0.005 11.001874,0.0441 11.496227,0.4445 1.641788,1.3299 1.436377,3.54561 -0.417582,4.50432 -0.628423,0.32498 -2.772054,0.37351 -14.907153,0.33749 -7.795249,-0.0231 -15.050274,-0.10886 -16.122279,-0.19051 z m 36.85652,-0.34353 c -1.482687,-0.99918 -1.629628,-2.92704 -0.315891,-4.14457 0.641573,-0.59458 0.784424,-0.61335 4.669263,-0.61335 3.915459,0 4.024949,0.0147 4.770263,0.64187 0.957735,0.80588 1.198046,1.82408 0.707573,2.99797 -0.606263,1.45099 -1.387896,1.69419 -5.445266,1.69419 -3.249596,0 -3.599208,-0.0459 -4.385942,-0.57611 z"
       style="fill:#297ece;fill-opacity:1;stroke-width:1"
       sodipodi:nodetypes="ccccccsccccsccccccccccccscsscccccccscccccccccsccccccccccccccccscccccccccsccsc" />
    <path
       inkscape:connector-curvature="0"
       id="path3726"
       d="m 46.784369,296.35577 c -3.050885,-1.38316 -3.074135,-6.39499 -0.0367,-7.77383 1.412717,-0.64129 2.847314,-0.62269 4.225041,0.0727 2.820954,1.42384 3.047845,5.65922 0.430702,7.6132 -0.854924,0.6383 -3.545287,0.79534 -4.619033,0.30851 z m -0.740453,-11.83904 -7.112035,-0.13306 -0.0729,-2.18809 -0.0729,-2.18809 9.851938,-0.17716 c 5.418567,-0.0974 10.023389,-0.22641 10.23294,-0.28661 0.460853,-0.1324 15.047884,-30.97348 14.932754,-31.57204 -0.0734,-0.38155 -1.516338,-0.42934 -16.460141,-0.54522 -17.185724,-0.13325 -17.167654,-0.13197 -17.770887,-1.25912 -0.407482,-0.76138 -0.305542,-1.93013 0.225561,-2.58626 0.429942,-0.53114 0.770884,-0.61849 2.984515,-0.76469 1.374516,-0.0908 10.170259,-0.1765 19.546075,-0.1905 l 17.046944,-0.0254 0.669643,0.66964 c 1.355507,1.35551 2.280311,-0.87722 -13.241835,31.96954 -1.320346,2.79401 -2.798023,5.91869 -3.283726,6.94374 -1.362846,2.87618 0.222591,2.66449 -17.475965,2.33337 z m -1.96851,-13.16436 -5.270526,-0.0741 v -2.49658 -2.59257 l 8.06454,-0.10185 c 8.517271,-0.10756 9.867938,-0.0173 10.429051,1.03113 0.347151,0.64866 0.353661,2.53155 0.0129,3.16824 -0.530533,0.99131 -2.04421,1.2596 -5.095335,1.19788 -1.578568,-0.0319 -5.241866,-0.0914 -8.14065,-0.13215 z m 8.21949,-12.97435 c -1.422097,-0.7882 -1.677278,-2.89885 -0.557012,-4.15301 l 0.788953,-0.82951 3.97857,-0.19198 4.650503,0.19198 0.693503,0.82951 c 0.407832,0.45623 0.741514,1.11914 0.741514,1.47312 0,0.94047 -0.627123,2.38335 -1.389917,2.73091 -0.950435,0.43305 -8.10522,0.39289 -8.906114,-0.051 z M 38.80488,255.61653 v -2.28601 h 3.521757 c 3.162056,0 4.501072,0.053 5.093495,0.51901 1.162196,0.91419 1.130986,3.43597 -0.0613,4.35137 -0.272131,0.20894 -2.490462,0.31206 -4.934444,0.31751 l -3.619518,0.008 z"
       style="fill:#354a64;fill-opacity:1;stroke-width:1"
       sodipodi:nodetypes="cccscccccccccscccccsscccccccscccccccccccscccccsccccc" />
  </g>
</svg>
